<svg xmlns="http://www.w3.org/2000/svg" viewBox="0 0 180 180">
  <!-- Dark background for iOS -->
  <rect width="180" height="180" rx="40" fill="#0a0a0a"/>
  <g transform="translate(25 22) scale(2.05)">
    <path d="M6 3 L58 3 L58 36 Q58 52 32 61 Q6 52 6 36 Z" fill="#e8b923"/>
    <path d="M9 6 L55 6 L55 35 Q55 50 32 58 Q9 50 9 35 Z" fill="#c41e3a"/>
    <g>
      <rect x="9" y="6" width="11.5" height="7" fill="#e8b923"/>
      <rect x="32" y="6" width="11.5" height="7" fill="#e8b923"/>
      <rect x="20.5" y="13" width="11.5" height="7" fill="#e8b923"/>
      <rect x="43.5" y="13" width="11.5" height="7" fill="#e8b923"/>
    </g>
    <g fill="#f5f5f0">
      <rect x="17" y="25" width="3" height="5"/>
      <rect x="22" y="25" width="3" height="5"/>
      <rect x="27" y="25" width="3" height="5"/>
      <rect x="32" y="25" width="3" height="5"/>
      <rect x="37" y="25" width="3" height="5"/>
      <rect x="42" y="25" width="3" height="5"/>
      <rect x="17" y="30" width="28" height="16"/>
      <rect x="28" y="20" width="8" height="14"/>
      <rect x="28" y="18" width="2.5" height="3"/>
      <rect x="32" y="18" width="2.5" height="3"/>
    </g>
    <g fill="#c41e3a">
      <path d="M29.5 38 L34.5 38 L34.5 46 L29.5 46 Z"/>
      <rect x="20.5" y="34" width="2.5" height="3"/>
      <rect x="39" y="34" width="2.5" height="3"/>
      <rect x="30.5" y="24" width="3" height="3"/>
    </g>
    <path d="M29.5 38 L34.5 38 L34.5 39.5 L29.5 39.5 Z" fill="#e8b923"/>
  </g>
</svg>
