<svg xmlns="http://www.w3.org/2000/svg" viewBox="0 0 1200 630" width="1200" height="630">
  <defs>
    <linearGradient id="bg" x1="0" y1="0" x2="1" y2="1">
      <stop offset="0%" stop-color="#0a0a0a"/>
      <stop offset="100%" stop-color="#111111"/>
    </linearGradient>
    <radialGradient id="glow" cx="0.5" cy="0.5" r="0.7">
      <stop offset="0%" stop-color="#3a7d44" stop-opacity="0.35"/>
      <stop offset="60%" stop-color="#3a7d44" stop-opacity="0.05"/>
      <stop offset="100%" stop-color="#3a7d44" stop-opacity="0"/>
    </radialGradient>
    <pattern id="lines" patternUnits="userSpaceOnUse" width="24" height="24" patternTransform="rotate(-45)">
      <line x1="0" y1="0" x2="0" y2="24" stroke="#3a7d44" stroke-opacity="0.07" stroke-width="1"/>
    </pattern>
  </defs>
  <rect width="1200" height="630" fill="url(#bg)"/>
  <rect width="1200" height="630" fill="url(#lines)"/>
  <rect width="1200" height="630" fill="url(#glow)"/>

  <!-- Top brand bar -->
  <rect x="80" y="80" width="6" height="40" fill="#3a7d44"/>
  <text x="100" y="108" font-family="system-ui, -apple-system, sans-serif" font-size="20" font-weight="700" fill="#3a7d44" letter-spacing="6">CASTILLO · AGÜIMES</text>

  <!-- Main heading -->
  <text x="80" y="280" font-family="'Barlow Condensed', system-ui, sans-serif" font-size="140" font-weight="900" fill="#f5f5f0" letter-spacing="-3">14 PISTAS.</text>
  <text x="80" y="410" font-family="'Barlow Condensed', system-ui, sans-serif" font-size="140" font-weight="900" letter-spacing="-3">
    <tspan fill="#3a7d44">UN SOLO</tspan>
    <tspan fill="#f5f5f0"> LUGAR.</tspan>
  </text>

  <!-- Subtitle -->
  <text x="80" y="470" font-family="system-ui, sans-serif" font-size="26" font-weight="400" fill="#f5f5f0" fill-opacity="0.65">
    El mayor complejo indoor de pádel de Canarias
  </text>

  <!-- Bottom badges -->
  <g transform="translate(80 540)">
    <rect width="200" height="42" rx="21" fill="none" stroke="#3a7d44" stroke-width="2"/>
    <text x="100" y="28" text-anchor="middle" font-family="system-ui, sans-serif" font-size="16" font-weight="700" fill="#3a7d44">14 PISTAS CUBIERTAS</text>

    <rect x="216" width="180" height="42" rx="21" fill="none" stroke="#e8d44d" stroke-width="2"/>
    <text x="306" y="28" text-anchor="middle" font-family="system-ui, sans-serif" font-size="16" font-weight="700" fill="#e8d44d">ESCUELA · TORNEOS</text>

    <rect x="412" width="160" height="42" rx="21" fill="none" stroke="#f5f5f0" stroke-opacity="0.3" stroke-width="2"/>
    <text x="492" y="28" text-anchor="middle" font-family="system-ui, sans-serif" font-size="16" font-weight="700" fill="#f5f5f0">GRAN CANARIA</text>
  </g>

  <!-- Heraldic shield top-right -->
  <g transform="translate(900 80) scale(4.2)">
    <path d="M6 3 L58 3 L58 36 Q58 52 32 61 Q6 52 6 36 Z" fill="#e8b923"/>
    <path d="M9 6 L55 6 L55 35 Q55 50 32 58 Q9 50 9 35 Z" fill="#c41e3a"/>
    <rect x="9" y="6" width="11.5" height="7" fill="#e8b923"/>
    <rect x="32" y="6" width="11.5" height="7" fill="#e8b923"/>
    <rect x="20.5" y="13" width="11.5" height="7" fill="#e8b923"/>
    <rect x="43.5" y="13" width="11.5" height="7" fill="#e8b923"/>
    <g fill="#f5f5f0">
      <rect x="17" y="25" width="3" height="5"/>
      <rect x="22" y="25" width="3" height="5"/>
      <rect x="27" y="25" width="3" height="5"/>
      <rect x="32" y="25" width="3" height="5"/>
      <rect x="37" y="25" width="3" height="5"/>
      <rect x="42" y="25" width="3" height="5"/>
      <rect x="17" y="30" width="28" height="16"/>
      <rect x="28" y="20" width="8" height="14"/>
      <rect x="28" y="18" width="2.5" height="3"/>
      <rect x="32" y="18" width="2.5" height="3"/>
    </g>
    <g fill="#c41e3a">
      <path d="M29.5 38 L34.5 38 L34.5 46 L29.5 46 Z"/>
      <rect x="20.5" y="34" width="2.5" height="3"/>
      <rect x="39" y="34" width="2.5" height="3"/>
      <rect x="30.5" y="24" width="3" height="3"/>
    </g>
    <path d="M29.5 38 L34.5 38 L34.5 39.5 L29.5 39.5 Z" fill="#e8b923"/>
  </g>
</svg>
